<svg width="785" height="589" viewBox="0 0 785 589" fill="none" xmlns="http://www.w3.org/2000/svg">
<g clip-path="url(#clip0_8702_40842)">
<g opacity="0.4" filter="url(#filter0_f_8702_40842)">
<path fill-rule="evenodd" clip-rule="evenodd" d="M397.905 424.504H328.544C314.222 424.504 300.871 416.98 293.71 404.9L235.351 306.355C228.216 294.261 228.216 279.245 235.351 267.167L293.71 168.617C300.871 156.528 314.208 149 328.544 149H445.229C459.55 149 472.894 156.528 480.062 168.617L538.404 267.167C545.556 279.245 545.556 294.261 538.404 306.355L523.314 329.814C516.292 341.679 502.941 349.191 488.619 349.191H419.159L457.136 286.708L422.011 227.407H351.754L316.613 286.752L397.905 424.504Z" fill="#FE5000"/>
</g>
<g opacity="0.5" filter="url(#filter1_f_8702_40842)">
<circle cx="389.182" cy="297.049" r="101.514" fill="#993000"/>
</g>
<path fill-rule="evenodd" clip-rule="evenodd" d="M414.552 442.147H345.191C334.232 442.147 323.843 437.742 316.359 430.262C314.062 427.966 312.039 425.381 310.357 422.543L251.998 323.999C244.863 311.905 244.863 296.888 251.998 284.81L310.357 186.261C317.518 174.171 330.855 166.643 345.191 166.643H461.875C472.83 166.643 483.212 171.047 490.696 178.528C492.997 180.828 495.024 183.418 496.709 186.261L555.051 284.81C562.203 296.888 562.203 311.905 555.051 323.999L539.961 347.458C532.939 359.323 519.588 366.834 505.266 366.834H435.806L473.783 304.352L438.658 245.05H368.401L333.26 304.395L414.552 442.147Z" fill="#FE5000"/>
<path fill-rule="evenodd" clip-rule="evenodd" d="M414.552 442.147H345.191C334.232 442.147 323.843 437.742 316.359 430.262C314.062 427.966 312.039 425.381 310.357 422.543L251.998 323.999C244.863 311.905 244.863 296.888 251.998 284.81L310.357 186.261C317.518 174.171 330.855 166.643 345.191 166.643H461.875C472.83 166.643 483.212 171.047 490.696 178.528C492.997 180.828 495.024 183.418 496.709 186.261L555.051 284.81C562.203 296.888 562.203 311.905 555.051 323.999L539.961 347.458C532.939 359.323 519.588 366.834 505.266 366.834H435.806L473.783 304.352L438.658 245.05H368.401L333.26 304.395L414.552 442.147Z" fill="black" fill-opacity="0.2"/>
<path d="M323.545 145C309.209 145 295.873 152.528 288.712 164.617L310.357 186.263C317.518 174.173 330.855 166.646 345.191 166.646L323.545 145Z" fill="#FE5000"/>
<path d="M323.545 145C309.209 145 295.873 152.528 288.712 164.617L310.357 186.263C317.518 174.173 330.855 166.646 345.191 166.646L323.545 145Z" fill="black" fill-opacity="0.2"/>
<path d="M288.71 164.618L230.351 263.167L251.997 284.813L310.356 186.264L288.71 164.618Z" fill="#FE5000"/>
<path d="M288.71 164.618L230.351 263.167L251.997 284.813L310.356 186.264L288.71 164.618Z" fill="black" fill-opacity="0.2"/>
<path d="M230.351 263.164C223.216 275.242 223.216 290.258 230.351 302.352L251.997 323.998C244.862 311.904 244.862 296.887 251.997 284.809L230.351 263.164Z" fill="#FE5000"/>
<path d="M230.351 263.164C223.216 275.242 223.216 290.258 230.351 302.352L251.997 323.998C244.862 311.904 244.862 296.887 251.997 284.809L230.351 263.164Z" fill="black" fill-opacity="0.2"/>
<path d="M440.227 145H323.542L345.188 166.646H461.873L440.227 145Z" fill="#FE5000"/>
<path d="M440.227 145H323.542L345.188 166.646H461.873L440.227 145Z" fill="black" fill-opacity="0.2"/>
<path d="M311.614 282.749L346.756 223.405L368.401 245.05L333.26 304.395L311.614 282.749Z" fill="#FE5000"/>
<path d="M311.614 282.749L346.756 223.405L368.401 245.05L333.26 304.395L311.614 282.749Z" fill="black" fill-opacity="0.2"/>
<path d="M346.755 223.405H417.012L438.657 245.05H368.4L346.755 223.405Z" fill="#FE5000"/>
<path d="M346.755 223.405H417.012L438.657 245.05H368.4L346.755 223.405Z" fill="black" fill-opacity="0.2"/>
<path d="M469.05 156.885C461.566 149.404 451.184 145 440.23 145L461.875 166.646C472.83 166.646 483.212 171.05 490.696 178.53L469.05 156.885Z" fill="#FE5000"/>
<path d="M469.05 156.885C461.566 149.404 451.184 145 440.23 145L461.875 166.646C472.83 166.646 483.212 171.05 490.696 178.53L469.05 156.885Z" fill="black" fill-opacity="0.2"/>
<path d="M230.351 302.355L288.71 400.9L310.356 422.545L251.997 324L230.351 302.355Z" fill="#FE5000"/>
<path d="M230.351 302.355L288.71 400.9L310.356 422.545L251.997 324L230.351 302.355Z" fill="black" fill-opacity="0.2"/>
<path d="M475.06 164.615C473.378 161.778 471.356 159.192 469.06 156.895L490.693 178.528C492.994 180.828 495.021 183.418 496.706 186.261L475.06 164.615Z" fill="#FE5000"/>
<path d="M475.06 164.615C473.378 161.778 471.356 159.192 469.06 156.895L490.693 178.528C492.994 180.828 495.021 183.418 496.706 186.261L475.06 164.615Z" fill="black" fill-opacity="0.2"/>
<path d="M417.01 223.405L452.134 282.706L473.78 304.351L438.655 245.05L417.01 223.405Z" fill="#FE5000"/>
<path d="M417.01 223.405L452.134 282.706L473.78 304.351L438.655 245.05L417.01 223.405Z" fill="black" fill-opacity="0.2"/>
<path d="M288.712 400.901C290.393 403.738 292.417 406.324 294.714 408.62L316.347 430.253C314.055 427.96 312.036 425.378 310.357 422.546L288.712 400.901Z" fill="#FE5000"/>
<path d="M288.712 400.901C290.393 403.738 292.417 406.324 294.714 408.62L316.347 430.253C314.055 427.96 312.036 425.378 310.357 422.546L288.712 400.901Z" fill="black" fill-opacity="0.2"/>
<path d="M392.906 420.504L311.614 282.752L333.26 304.397L414.552 442.149L392.906 420.504Z" fill="#FE5000"/>
<path d="M392.906 420.504L311.614 282.752L333.26 304.397L414.552 442.149L392.906 420.504Z" fill="black" fill-opacity="0.2"/>
<path d="M533.406 263.167L475.064 164.618L496.709 186.264L555.052 284.813L533.406 263.167Z" fill="#FE5000"/>
<path d="M533.406 263.167L475.064 164.618L496.709 186.264L555.052 284.813L533.406 263.167Z" fill="black" fill-opacity="0.2"/>
<path d="M294.713 408.621C302.196 416.101 312.586 420.505 323.544 420.505L345.19 442.151C334.232 442.151 323.842 437.746 316.358 430.266L294.713 408.621Z" fill="#FE5000"/>
<path d="M294.713 408.621C302.196 416.101 312.586 420.505 323.544 420.505L345.19 442.151C334.232 442.151 323.842 437.746 316.358 430.266L294.713 408.621Z" fill="black" fill-opacity="0.2"/>
<path d="M452.135 282.707L414.158 345.19L435.804 366.835L473.781 304.353L452.135 282.707Z" fill="#FE5000"/>
<path d="M452.135 282.707L414.158 345.19L435.804 366.835L473.781 304.353L452.135 282.707Z" fill="black" fill-opacity="0.2"/>
<path d="M323.542 420.504H392.903L414.549 442.149H345.188L323.542 420.504Z" fill="#FE5000"/>
<path d="M323.542 420.504H392.903L414.549 442.149H345.188L323.542 420.504Z" fill="black" fill-opacity="0.2"/>
<path d="M414.158 345.193H483.618L505.264 366.839H435.804L414.158 345.193Z" fill="#FE5000"/>
<path d="M414.158 345.193H483.618L505.264 366.839H435.804L414.158 345.193Z" fill="black" fill-opacity="0.2"/>
<path d="M533.406 302.352C540.557 290.258 540.557 275.242 533.406 263.164L555.051 284.809C562.203 296.887 562.203 311.904 555.051 323.998L533.406 302.352Z" fill="#FE5000"/>
<path d="M533.406 302.352C540.557 290.258 540.557 275.242 533.406 263.164L555.051 284.809C562.203 296.887 562.203 311.904 555.051 323.998L533.406 302.352Z" fill="black" fill-opacity="0.2"/>
<path d="M483.621 345.191C497.943 345.191 511.293 337.679 518.316 325.814L539.961 347.46C532.939 359.325 519.588 366.836 505.266 366.836L483.621 345.191Z" fill="#FE5000"/>
<path d="M483.621 345.191C497.943 345.191 511.293 337.679 518.316 325.814L539.961 347.46C532.939 359.325 519.588 366.836 505.266 366.836L483.621 345.191Z" fill="black" fill-opacity="0.2"/>
<path d="M518.313 325.814L533.404 302.355L555.049 324L539.959 347.46L518.313 325.814Z" fill="#FE5000"/>
<path d="M518.313 325.814L533.404 302.355L555.049 324L539.959 347.46L518.313 325.814Z" fill="black" fill-opacity="0.2"/>
<path fill-rule="evenodd" clip-rule="evenodd" d="M392.905 420.504H323.544C309.222 420.504 295.871 412.98 288.71 400.9L230.351 302.355C223.216 290.261 223.216 275.245 230.351 263.167L288.71 164.617C295.871 152.528 309.208 145 323.544 145H440.229C454.55 145 467.894 152.528 475.062 164.617L533.404 263.167C540.556 275.245 540.556 290.261 533.404 302.355L518.314 325.814C511.292 337.679 497.941 345.191 483.619 345.191H414.159L452.136 282.708L417.011 223.407H346.754L311.613 282.752L392.905 420.504Z" fill="#FE5000"/>
</g>
<defs>
<filter id="filter0_f_8702_40842" x="198" y="117" width="377.768" height="339.504" filterUnits="userSpaceOnUse" color-interpolation-filters="sRGB">
<feFlood flood-opacity="0" result="BackgroundImageFix"/>
<feBlend mode="normal" in="SourceGraphic" in2="BackgroundImageFix" result="shape"/>
<feGaussianBlur stdDeviation="16" result="effect1_foregroundBlur_8702_40842"/>
</filter>
<filter id="filter1_f_8702_40842" x="87.668" y="-4.46484" width="603.028" height="603.028" filterUnits="userSpaceOnUse" color-interpolation-filters="sRGB">
<feFlood flood-opacity="0" result="BackgroundImageFix"/>
<feBlend mode="normal" in="SourceGraphic" in2="BackgroundImageFix" result="shape"/>
<feGaussianBlur stdDeviation="100" result="effect1_foregroundBlur_8702_40842"/>
</filter>
<clipPath id="clip0_8702_40842">
<rect width="785" height="588.75" fill="white"/>
</clipPath>
</defs>
</svg>
