<svg id="svg" version="1.1" xmlns="http://www.w3.org/2000/svg" xmlns:xlink="http://www.w3.org/1999/xlink" width="400" height="400" viewBox="0, 0, 400,400"><g id="svgg"><path id="path0" d="M198.328 242.934 C 187.959 245.858,188.788 262.489,199.400 264.456 C 206.622 265.795,212.105 261.151,212.105 253.698 C 212.105 245.702,205.848 240.814,198.328 242.934 M251.673 243.135 C 242.299 246.485,242.708 261.458,252.249 264.231 C 262.511 267.215,270.166 255.696,263.976 246.585 C 261.623 243.122,256.069 241.564,251.673 243.135 M130.913 243.300 C 131.023 243.575,132.969 248.443,135.238 254.119 L 139.363 264.437 141.148 264.319 L 142.932 264.200 146.588 255.200 C 148.599 250.250,150.548 245.435,150.919 244.500 L 151.594 242.800 149.863 242.800 L 148.133 242.800 144.803 251.415 C 142.972 256.154,141.360 260.101,141.220 260.187 C 141.081 260.274,139.444 256.398,137.583 251.576 L 134.200 242.807 132.457 242.804 C 131.222 242.801,130.772 242.946,130.913 243.300 M155.600 253.600 L 155.600 264.400 162.600 264.400 L 169.600 264.400 169.600 263.000 L 169.600 261.600 164.000 261.600 L 158.400 261.600 158.400 258.200 L 158.400 254.800 164.000 254.800 L 169.600 254.800 169.600 253.400 L 169.600 252.000 164.000 252.000 L 158.400 252.000 158.400 248.800 L 158.400 245.600 164.000 245.600 L 169.600 245.600 169.600 244.200 L 169.600 242.800 162.600 242.800 L 155.600 242.800 155.600 253.600 M175.200 253.600 L 175.200 264.400 181.600 264.400 L 188.000 264.400 188.000 263.000 L 188.000 261.600 183.000 261.600 L 178.000 261.600 178.000 252.200 L 178.000 242.800 176.600 242.800 L 175.200 242.800 175.200 253.600 M215.600 244.200 L 215.600 245.600 218.800 245.600 L 222.000 245.600 222.000 255.000 L 222.000 264.400 223.600 264.400 L 225.200 264.400 225.200 255.000 L 225.200 245.600 228.600 245.600 L 232.000 245.600 232.000 244.200 L 232.000 242.800 223.800 242.800 L 215.600 242.800 215.600 244.200 M236.400 253.600 L 236.400 264.400 238.000 264.400 L 239.600 264.400 239.600 253.600 L 239.600 242.800 238.000 242.800 L 236.400 242.800 236.400 253.600 M205.231 246.129 C 210.806 249.077,210.367 259.016,204.556 261.444 C 199.339 263.624,194.000 259.657,194.000 253.600 C 194.000 248.773,197.232 245.200,201.600 245.200 C 202.790 245.200,204.116 245.539,205.231 246.129 M258.519 245.740 C 266.208 248.953,263.703 262.000,255.397 262.000 C 250.803 262.000,248.200 258.962,248.200 253.600 C 248.200 247.111,253.018 243.442,258.519 245.740 " stroke="none" fill="#6c6c6c" fill-rule="evenodd"></path><path id="path1" d="M229.882 183.442 C 229.301 184.402,225.281 191.356,220.947 198.894 C 216.613 206.432,212.911 212.778,212.719 212.995 C 212.527 213.213,215.686 206.643,219.739 198.395 C 223.793 190.148,227.034 183.273,226.942 183.117 C 226.445 182.280,225.314 184.150,220.605 193.590 C 217.759 199.296,215.379 203.913,215.317 203.850 C 215.254 203.787,217.092 199.182,219.401 193.616 C 223.931 182.697,223.972 182.573,222.848 183.175 C 222.379 183.425,220.915 186.444,218.968 191.176 C 215.064 200.662,214.861 200.624,218.195 191.029 C 221.208 182.359,220.997 183.223,220.045 183.472 C 219.502 183.614,218.918 184.771,217.956 187.612 C 216.299 192.509,216.018 192.487,217.367 187.567 C 217.927 185.523,218.324 183.791,218.250 183.716 C 217.804 183.271,216.804 184.275,216.443 185.530 L 216.020 187.000 216.220 185.546 C 216.368 184.463,216.258 184.031,215.789 183.851 C 215.442 183.718,215.261 183.775,215.386 183.977 C 215.511 184.179,215.430 184.458,215.207 184.596 C 214.983 184.734,214.800 184.676,214.800 184.466 C 214.800 184.257,214.521 183.978,214.179 183.847 C 213.823 183.711,213.663 183.778,213.803 184.005 C 213.948 184.239,213.345 184.424,212.324 184.459 C 211.376 184.492,210.330 184.555,210.000 184.600 C 209.670 184.645,208.950 184.721,208.400 184.770 C 207.545 184.846,207.646 184.954,209.100 185.512 C 210.035 185.871,210.800 186.329,210.800 186.529 C 210.800 186.954,210.141 186.793,207.400 185.702 C 206.161 185.208,205.096 185.018,204.600 185.203 C 203.785 185.506,205.764 186.595,209.752 188.037 C 210.548 188.325,211.200 188.795,211.200 189.080 C 211.200 189.797,211.137 189.780,207.983 188.191 C 203.923 186.147,201.497 185.270,200.699 185.558 C 200.204 185.737,201.711 186.666,205.799 188.704 C 209.414 190.507,211.600 191.823,211.600 192.198 C 211.600 193.084,211.605 193.086,205.223 189.400 C 201.985 187.530,199.106 186.000,198.825 186.000 C 198.510 186.000,198.414 185.741,198.574 185.322 C 198.812 184.704,198.772 184.699,198.117 185.270 C 197.723 185.614,197.130 185.819,196.800 185.724 C 195.888 185.464,198.757 187.239,205.495 191.104 C 210.500 193.975,211.590 194.761,211.595 195.500 C 211.602 196.744,212.100 197.010,202.748 190.765 C 198.107 187.666,194.421 185.311,194.557 185.531 C 194.694 185.751,194.585 186.005,194.316 186.095 C 193.772 186.276,196.512 188.258,205.519 194.200 C 211.272 197.995,211.583 198.267,211.592 199.507 L 211.600 200.814 207.575 197.707 C 193.233 186.636,191.600 185.522,191.600 186.808 C 191.600 187.007,196.068 190.604,201.528 194.801 C 211.009 202.087,211.449 202.485,211.283 203.616 C 211.032 205.328,211.410 205.596,200.096 195.700 C 192.318 188.897,189.414 186.585,188.588 186.539 L 187.484 186.477 188.508 187.339 C 199.770 196.811,210.791 207.008,210.577 207.757 C 210.445 208.220,210.241 208.939,210.124 209.354 C 209.956 209.952,207.510 207.706,198.254 198.454 C 189.225 189.429,186.370 186.800,185.600 186.800 C 184.785 186.800,186.876 189.072,197.137 199.337 L 209.670 211.874 209.168 213.548 C 208.502 215.772,209.566 216.761,195.909 201.222 C 187.001 191.086,183.496 187.365,182.650 187.143 L 181.501 186.843 182.285 187.721 C 182.717 188.205,188.259 194.540,194.600 201.800 C 200.942 209.060,206.574 215.483,207.115 216.074 L 208.099 217.147 207.368 219.180 C 206.966 220.298,206.511 221.165,206.357 221.106 C 206.202 221.048,200.278 213.440,193.191 204.200 C 186.104 194.960,180.250 187.339,180.183 187.263 C 180.115 187.188,179.793 187.278,179.467 187.463 C 179.003 187.727,181.804 191.619,192.440 205.486 L 206.005 223.172 204.919 225.386 C 204.322 226.604,203.736 227.595,203.617 227.589 C 203.498 227.583,197.681 218.988,190.691 208.489 C 176.004 186.431,176.775 187.512,176.052 187.964 C 175.634 188.225,178.777 193.188,189.358 208.970 L 203.212 229.633 201.706 232.209 C 200.878 233.626,200.110 234.787,200.000 234.789 C 199.890 234.792,193.757 224.325,186.372 211.531 C 178.236 197.435,172.690 188.231,172.300 188.174 C 171.859 188.109,171.727 188.288,171.881 188.739 C 172.217 189.727,199.768 237.585,200.000 237.585 C 200.110 237.585,206.230 227.128,213.600 214.346 C 233.046 180.621,231.936 182.630,231.403 182.131 C 231.057 181.809,230.663 182.149,229.882 183.442 " stroke="none" fill="#045fb5" fill-rule="evenodd"></path><path id="path2" d="M236.565 173.074 C 235.666 173.251,231.200 180.489,231.200 181.769 C 231.200 183.206,232.210 182.021,234.854 177.478 C 236.352 174.905,237.538 172.825,237.489 172.854 C 237.440 172.884,237.024 172.983,236.565 173.074 M228.238 178.024 C 225.699 183.390,225.804 183.067,226.602 183.067 C 227.659 183.067,232.168 173.737,231.230 173.492 C 230.601 173.327,230.102 174.083,228.238 178.024 M224.164 178.575 C 222.299 183.108,222.203 183.490,223.028 183.114 C 223.658 182.827,224.435 181.484,225.609 178.652 C 227.979 172.936,227.860 173.310,227.114 173.917 C 226.724 174.234,226.424 174.277,226.339 174.029 C 226.263 173.807,225.284 175.853,224.164 178.575 M220.953 178.817 C 219.851 182.018,219.471 183.600,219.804 183.600 C 221.013 183.600,223.988 175.415,223.100 174.531 C 222.700 174.134,222.270 174.993,220.953 178.817 M214.474 177.465 L 214.046 180.200 214.242 177.705 C 214.410 175.569,214.350 175.244,213.819 175.448 C 213.479 175.579,213.200 175.956,213.200 176.287 C 213.200 176.706,212.962 176.602,212.413 175.944 C 211.981 175.425,211.621 175.209,211.613 175.465 C 211.604 175.777,210.751 175.909,209.038 175.865 C 207.628 175.829,206.545 175.913,206.631 176.051 C 206.855 176.413,204.635 176.798,202.250 176.812 C 201.123 176.818,196.060 177.279,191.000 177.835 C 185.940 178.392,181.305 178.857,180.700 178.870 C 180.095 178.883,179.600 179.042,179.600 179.224 C 179.600 179.709,187.078 186.137,188.070 186.504 C 189.726 187.117,189.360 186.309,186.997 184.134 L 184.600 181.929 187.600 184.154 C 189.250 185.378,190.809 186.556,191.064 186.772 C 191.383 187.042,191.609 186.953,191.787 186.490 C 191.964 186.028,191.631 185.459,190.723 184.677 C 189.876 183.949,190.320 184.145,191.957 185.223 C 193.363 186.149,194.387 186.703,194.233 186.453 C 194.079 186.204,194.138 186.000,194.364 186.000 C 194.590 186.000,194.676 185.742,194.555 185.428 C 194.371 184.949,194.568 184.927,195.762 185.293 C 196.981 185.667,197.118 185.824,196.702 186.365 C 196.392 186.768,196.535 186.726,197.092 186.252 L 197.970 185.504 197.085 184.750 C 196.251 184.040,196.312 184.042,198.133 184.798 C 201.175 186.060,202.528 185.647,199.900 184.258 C 199.185 183.880,198.960 183.692,199.400 183.840 C 201.958 184.698,202.990 185.197,202.913 185.537 C 202.862 185.765,203.295 185.744,203.985 185.483 C 205.041 185.085,205.084 184.997,204.471 184.490 C 203.850 183.976,203.855 183.952,204.533 184.167 C 204.936 184.295,205.441 184.400,205.656 184.400 C 205.871 184.400,205.960 184.540,205.854 184.712 C 205.748 184.883,206.143 184.988,206.731 184.944 C 207.319 184.901,208.115 184.850,208.500 184.832 C 209.806 184.772,209.208 184.106,207.389 183.597 C 206.392 183.318,205.653 183.014,205.746 182.921 C 206.124 182.542,210.400 184.076,210.140 184.498 C 209.963 184.783,210.113 184.842,210.567 184.668 C 210.951 184.521,211.891 184.400,212.656 184.400 C 213.421 184.400,213.964 184.265,213.862 184.100 C 213.760 183.935,214.108 183.774,214.636 183.742 C 215.163 183.711,215.497 183.844,215.377 184.038 C 215.257 184.232,215.439 184.283,215.783 184.151 C 216.464 183.890,216.473 183.860,217.541 178.554 C 218.237 175.094,218.239 174.917,217.572 175.091 C 217.036 175.232,216.704 176.160,216.163 179.032 C 215.301 183.608,214.985 183.694,215.602 179.183 C 216.229 174.605,215.173 172.998,214.474 177.465 M218.233 179.210 C 217.603 181.635,217.181 183.714,217.296 183.829 C 217.831 184.364,218.763 182.557,219.531 179.495 C 219.994 177.646,220.489 175.834,220.630 175.467 C 220.813 174.990,220.671 174.800,220.133 174.800 C 219.511 174.800,219.181 175.565,218.233 179.210 M178.646 178.760 C 178.724 178.849,178.517 179.119,178.186 179.361 C 177.338 179.981,184.260 186.940,185.521 186.735 C 186.217 186.622,185.707 185.940,182.429 182.600 C 180.270 180.400,178.568 178.672,178.646 178.760 M175.236 183.083 C 178.371 187.261,179.255 188.082,179.750 187.281 C 180.075 186.755,174.383 179.600,173.640 179.600 C 173.266 179.600,172.715 179.375,172.416 179.100 C 172.117 178.825,173.386 180.617,175.236 183.083 M176.200 179.200 C 175.760 179.365,175.220 179.398,175.000 179.273 C 174.780 179.148,175.939 180.565,177.576 182.423 C 179.213 184.280,180.752 186.027,180.995 186.305 C 181.239 186.582,182.018 186.976,182.727 187.179 L 184.017 187.549 182.850 186.274 C 179.168 182.252,177.233 179.870,177.411 179.582 C 177.726 179.072,177.082 178.869,176.200 179.200 M170.965 179.500 C 171.138 179.807,171.006 180.000,170.621 180.000 C 170.189 180.000,170.821 181.239,172.659 184.000 C 175.167 187.768,176.017 188.544,176.600 187.600 C 176.736 187.380,176.657 187.200,176.424 187.200 C 176.191 187.200,176.000 187.002,176.000 186.761 C 176.000 186.519,174.981 184.854,173.735 183.061 C 171.618 180.012,170.291 178.307,170.965 179.500 M167.087 180.300 C 166.690 181.042,171.835 189.156,172.265 188.467 C 172.602 187.928,172.230 186.995,170.444 183.903 C 168.409 180.378,167.542 179.448,167.087 180.300 " stroke="none" fill="#0477bc" fill-rule="evenodd"></path><path id="path3" d="M143.200 139.340 C 143.200 139.581,159.269 167.329,160.244 168.771 C 161.677 170.892,161.969 169.310,160.588 166.905 C 159.987 165.857,159.130 164.370,158.683 163.600 C 157.453 161.478,158.426 162.633,160.788 166.100 C 161.950 167.805,163.147 169.200,163.450 169.200 C 164.134 169.200,164.153 168.736,163.500 167.986 C 163.225 167.670,163.450 167.796,164.000 168.265 C 165.007 169.124,168.678 169.212,169.200 168.390 C 169.311 168.217,172.101 166.993,175.400 165.669 C 178.700 164.346,184.280 162.064,187.800 160.599 C 191.320 159.133,194.470 157.850,194.800 157.748 C 195.130 157.645,190.824 159.881,185.232 162.716 C 172.631 169.104,172.224 170.418,184.718 164.371 C 189.163 162.220,192.800 160.508,192.800 160.566 C 192.800 160.624,190.372 162.096,187.406 163.836 C 184.439 165.576,182.009 167.110,182.006 167.245 C 181.996 167.666,183.860 167.309,184.852 166.699 C 186.791 165.509,190.586 163.526,190.200 163.905 C 189.980 164.121,189.009 164.860,188.043 165.547 L 186.285 166.796 189.043 166.626 C 196.845 166.144,197.583 165.983,198.551 164.558 L 199.449 163.236 200.110 164.355 C 200.729 165.403,200.917 165.466,203.085 165.351 C 204.358 165.284,205.535 165.222,205.700 165.214 C 205.865 165.206,206.018 164.795,206.040 164.300 L 206.080 163.400 206.340 164.288 C 206.499 164.831,206.781 165.063,207.066 164.885 C 207.413 164.669,207.318 163.446,206.694 160.090 C 206.124 157.025,205.986 155.454,206.264 155.176 C 206.542 154.898,206.829 156.084,207.163 158.884 C 207.785 164.108,207.959 164.800,208.651 164.800 C 209.024 164.800,209.153 164.495,209.032 163.900 C 208.372 160.663,207.898 153.942,208.301 153.539 C 208.848 152.992,209.043 154.104,209.481 160.289 C 209.738 163.911,209.905 164.713,210.341 164.440 C 210.786 164.162,210.812 163.041,210.488 158.151 C 210.101 152.327,210.188 151.629,211.300 151.606 C 211.465 151.603,211.600 154.480,211.600 158.000 C 211.600 163.422,211.692 164.400,212.200 164.400 C 212.710 164.400,212.800 163.363,212.800 157.464 L 212.800 150.528 213.853 150.048 L 214.907 149.568 214.664 151.884 C 213.982 158.396,213.876 164.108,214.440 163.921 C 215.019 163.729,215.254 161.870,215.803 153.148 C 216.058 149.099,216.119 148.874,217.087 148.433 C 218.509 147.785,218.496 147.474,217.396 155.790 C 216.225 164.646,216.260 164.000,216.950 164.000 C 217.612 164.000,217.664 163.740,218.844 154.509 L 219.775 147.217 220.953 146.807 C 221.600 146.581,222.214 146.480,222.316 146.583 C 222.460 146.727,220.557 157.409,219.375 163.089 C 219.236 163.757,219.340 163.921,219.791 163.748 C 220.521 163.468,220.749 162.615,222.628 153.120 C 224.207 145.137,224.384 144.800,226.998 144.800 C 227.313 144.800,226.675 147.781,225.138 153.494 C 223.852 158.276,222.800 162.416,222.800 162.694 C 222.800 163.826,223.863 163.098,224.251 161.700 C 224.480 160.875,225.629 156.600,226.805 152.200 C 229.309 142.825,228.756 144.015,230.822 143.551 C 233.165 143.024,233.224 142.535,229.665 153.201 C 227.094 160.908,226.580 162.824,227.113 162.721 C 227.595 162.629,228.726 159.855,231.190 152.724 C 235.127 141.331,234.446 142.529,237.229 142.093 L 239.429 141.748 235.556 151.174 C 233.425 156.358,231.562 161.005,231.414 161.500 C 230.949 163.061,232.219 162.546,232.892 160.900 C 236.072 153.117,240.932 141.733,241.187 141.466 C 241.540 141.098,246.400 140.565,246.400 140.894 C 246.400 141.007,244.313 145.397,241.761 150.650 C 236.180 162.142,236.239 162.000,237.008 162.000 C 237.379 162.000,239.601 157.993,243.000 151.200 L 248.403 140.400 251.444 140.400 C 255.090 140.400,255.287 139.429,249.678 149.111 C 243.613 159.578,242.772 161.200,243.411 161.200 C 244.102 161.200,256.800 140.479,256.800 139.351 C 256.800 139.268,231.240 139.200,200.000 139.200 C 168.760 139.200,143.200 139.263,143.200 139.340 M228.600 140.679 C 227.720 140.759,210.440 141.893,190.200 143.201 C 169.960 144.508,152.297 145.684,150.949 145.815 L 148.499 146.053 147.049 143.462 C 146.252 142.036,145.600 140.764,145.600 140.635 C 145.600 140.506,164.635 140.430,187.900 140.467 C 211.165 140.504,229.480 140.600,228.600 140.679 M222.800 142.680 C 222.250 142.775,206.770 144.816,188.400 147.216 C 170.030 149.617,154.525 151.667,153.944 151.772 C 152.895 151.961,149.520 147.947,150.177 147.290 C 150.456 147.011,217.433 142.498,221.200 142.505 C 222.630 142.507,223.350 142.586,222.800 142.680 M187.036 150.911 L 157.071 156.943 155.742 155.372 C 155.010 154.507,154.409 153.614,154.406 153.386 C 154.401 153.025,213.169 144.918,216.000 144.890 C 216.550 144.884,203.516 147.594,187.036 150.911 M208.800 148.262 C 208.470 148.355,197.580 151.287,184.600 154.777 L 161.000 161.123 159.620 159.775 C 158.861 159.033,158.368 158.298,158.525 158.142 C 158.854 157.813,207.395 148.059,208.600 148.079 C 209.098 148.088,209.173 148.157,208.800 148.262 M201.000 152.142 C 200.340 152.422,191.839 155.340,182.110 158.626 L 164.419 164.600 163.206 163.389 L 161.992 162.177 181.496 156.920 C 200.329 151.844,203.562 151.052,201.000 152.142 M198.767 154.555 C 198.675 154.640,192.930 157.055,186.000 159.920 C 179.070 162.786,172.140 165.673,170.600 166.337 L 167.800 167.543 166.895 166.697 C 165.633 165.517,164.930 165.827,182.400 159.861 C 197.196 154.807,199.190 154.161,198.767 154.555 M205.530 161.000 C 205.533 161.440,205.223 160.720,204.840 159.400 C 204.457 158.080,204.243 156.820,204.364 156.600 C 204.598 156.175,205.519 159.651,205.530 161.000 " stroke="none" fill="#04b2ce" fill-rule="evenodd"></path><path id="path4" d="M244.200 160.800 C 244.064 161.020,243.648 161.206,243.276 161.213 C 242.237 161.233,235.488 173.200,236.516 173.200 C 236.838 173.200,237.281 172.975,237.500 172.700 C 238.115 171.926,244.766 160.400,244.597 160.400 C 244.515 160.400,244.336 160.580,244.200 160.800 M228.683 167.760 C 226.201 173.868,225.897 175.086,227.181 173.789 C 228.596 172.359,232.422 162.499,231.641 162.295 C 231.114 162.157,230.500 163.291,228.683 167.760 M233.493 167.404 C 230.651 173.106,230.479 173.600,231.336 173.600 C 231.866 173.600,234.579 168.753,236.542 164.300 C 237.443 162.257,237.479 162.000,236.871 162.000 C 236.391 162.000,235.380 163.618,233.493 167.404 M227.000 162.777 C 226.044 163.167,222.561 173.209,222.996 174.321 C 223.224 174.902,223.337 174.856,223.783 174.000 C 224.289 173.030,228.070 162.374,227.890 162.425 C 227.840 162.439,227.440 162.598,227.000 162.777 M221.212 168.159 C 220.467 171.042,219.779 173.715,219.683 174.100 C 219.571 174.545,219.736 174.800,220.138 174.800 C 220.544 174.800,220.929 174.193,221.217 173.100 C 221.965 170.258,223.621 164.229,223.788 163.739 C 223.874 163.486,223.634 163.198,223.255 163.098 C 222.674 162.946,222.352 163.744,221.212 168.159 M214.309 164.104 C 213.506 164.733,212.810 175.600,213.572 175.600 C 214.243 175.600,214.333 175.105,214.746 169.200 C 215.165 163.200,215.184 163.418,214.309 164.104 M219.353 164.076 C 218.507 165.445,216.909 175.238,217.551 175.115 C 218.112 175.009,220.313 166.451,220.385 164.100 C 220.404 163.465,219.740 163.450,219.353 164.076 M216.372 164.100 C 215.690 166.538,214.982 174.703,215.413 175.157 C 215.859 175.626,215.980 175.499,216.177 174.357 C 216.392 173.115,217.600 164.433,217.600 164.130 C 217.600 163.979,216.414 163.950,216.372 164.100 M205.954 164.737 C 205.831 165.107,204.947 165.292,203.126 165.332 L 200.477 165.388 201.522 167.194 C 202.097 168.187,203.478 170.530,204.590 172.400 L 206.612 175.800 209.106 175.851 C 210.538 175.881,211.600 175.732,211.600 175.502 C 211.600 175.279,211.865 175.322,212.200 175.600 C 212.729 176.039,212.800 175.403,212.800 170.249 C 212.800 165.317,212.706 164.400,212.200 164.400 C 211.713 164.400,211.586 165.133,211.526 168.300 C 211.485 170.445,211.397 171.210,211.329 170.000 C 211.033 164.729,210.304 162.935,209.551 165.630 C 209.287 166.574,209.279 166.576,209.240 165.700 C 209.199 164.771,208.005 164.388,207.994 165.300 C 207.989 165.662,207.891 165.648,207.639 165.249 C 207.447 164.946,207.105 164.812,206.879 164.951 C 206.653 165.091,206.393 164.979,206.301 164.702 C 206.172 164.316,206.092 164.325,205.954 164.737 M195.200 166.066 C 193.770 166.266,191.655 166.461,190.500 166.499 C 189.345 166.537,188.400 166.684,188.400 166.826 C 188.400 167.399,179.209 174.053,178.782 173.789 C 178.513 173.623,180.339 172.172,183.232 170.254 C 187.403 167.488,187.982 166.981,187.097 166.876 C 186.343 166.786,184.810 167.585,181.531 169.776 C 179.042 171.439,176.790 172.800,176.526 172.800 C 175.136 172.800,176.028 171.929,179.420 169.975 C 181.495 168.779,183.195 167.669,183.197 167.508 C 183.205 166.759,180.609 167.666,177.487 169.503 C 174.500 171.262,173.958 171.457,173.335 171.002 C 172.683 170.525,172.788 170.395,174.509 169.559 C 176.582 168.552,176.811 168.201,175.600 167.884 C 175.160 167.769,174.800 167.849,174.800 168.061 C 174.800 168.273,174.620 168.336,174.400 168.200 C 174.180 168.064,174.000 168.173,174.000 168.443 C 174.000 168.713,173.887 168.821,173.749 168.683 C 173.611 168.545,173.009 168.685,172.411 168.995 C 171.118 169.663,169.602 169.372,169.594 168.453 C 169.590 168.030,169.484 167.959,169.294 168.253 C 169.132 168.502,168.100 168.806,167.000 168.928 C 165.900 169.050,164.944 169.161,164.876 169.175 C 164.808 169.189,164.881 169.408,165.038 169.662 C 165.216 169.950,165.148 170.015,164.855 169.834 C 164.598 169.675,164.483 169.390,164.600 169.200 C 164.717 169.010,164.630 168.742,164.407 168.604 C 164.183 168.466,164.000 168.543,164.000 168.776 C 164.000 169.009,163.722 169.200,163.382 169.200 C 162.971 169.200,163.845 170.780,165.980 173.900 C 169.959 179.713,170.183 180.000,170.732 180.000 C 171.425 180.000,170.877 178.928,167.920 174.500 C 164.486 169.358,164.667 169.297,168.508 174.300 C 171.818 178.611,172.932 179.756,173.601 179.533 C 173.849 179.450,173.125 178.135,171.982 176.592 L 169.916 173.800 172.574 176.681 C 174.344 178.600,175.435 179.485,175.838 179.330 C 176.341 179.137,176.287 178.924,175.522 178.072 C 174.762 177.227,174.873 177.265,176.152 178.291 C 177.599 179.451,179.139 179.690,178.521 178.658 C 178.322 178.326,178.406 178.316,178.823 178.620 C 179.483 179.101,179.327 179.110,189.200 178.004 C 193.270 177.548,198.580 177.027,201.000 176.845 L 205.400 176.514 198.700 176.457 C 195.015 176.426,192.000 176.320,192.000 176.223 C 192.000 176.126,193.161 174.061,194.580 171.635 C 197.383 166.841,198.090 165.573,197.914 165.651 C 197.851 165.679,196.630 165.865,195.200 166.066 M209.876 168.700 C 209.775 169.085,209.693 168.770,209.693 168.000 C 209.693 167.230,209.775 166.915,209.876 167.300 C 209.976 167.685,209.976 168.315,209.876 168.700 M161.341 169.535 C 160.790 170.434,166.534 180.477,167.407 180.142 C 168.074 179.886,167.823 179.339,164.107 172.935 C 162.165 169.587,161.677 168.987,161.341 169.535 M184.400 172.400 C 182.970 173.705,181.530 174.774,181.200 174.774 C 180.818 174.774,180.977 174.493,181.639 173.998 C 182.211 173.571,183.561 172.504,184.639 171.625 C 187.505 169.292,187.387 169.673,184.400 172.400 M185.600 173.325 C 185.600 173.394,185.015 173.979,184.300 174.625 L 183.000 175.800 184.175 174.500 C 185.270 173.288,185.600 173.016,185.600 173.325 M188.000 173.322 C 188.000 173.388,187.325 174.063,186.500 174.822 L 185.000 176.200 186.378 174.700 C 187.662 173.304,188.000 173.016,188.000 173.322 " stroke="none" fill="#048fc5" fill-rule="evenodd"></path></g></svg>