<svg id="svg" version="1.1" xmlns="http://www.w3.org/2000/svg" xmlns:xlink="http://www.w3.org/1999/xlink" width="400" height="251.52224824355972" viewBox="0, 0, 400,251.52224824355972"><g id="svgg"><path id="path0" d="M14.637 0.165 C 9.047 0.921,4.156 4.455,1.762 9.470 C 0.003 13.154,0.138 10.243,0.060 46.092 L -0.010 78.251 0.718 78.177 C 1.398 78.108,1.496 77.972,2.216 76.107 C 7.002 63.700,17.004 56.604,31.323 55.456 L 34.895 55.170 34.890 35.840 C 34.887 24.760,34.789 15.848,34.661 14.957 C 33.226 5.042,24.770 -1.205,14.637 0.165 M180.913 53.400 C 176.505 53.666,171.515 54.253,167.681 54.955 C 165.943 55.274,164.256 55.574,163.934 55.622 C 162.787 55.795,156.277 57.642,153.513 58.579 C 116.485 71.134,92.847 104.421,91.002 146.604 L 90.874 149.532 91.330 146.604 C 93.286 134.055,99.092 123.085,109.186 112.865 C 134.495 87.242,181.300 75.550,214.052 86.671 C 216.692 87.568,219.037 88.364,219.262 88.440 C 219.650 88.572,219.672 87.728,219.672 72.881 L 219.672 57.182 217.623 56.702 C 212.108 55.410,206.728 54.498,201.639 53.990 C 199.643 53.791,197.535 53.578,196.956 53.517 C 194.786 53.287,184.072 53.209,180.913 53.400 M336.534 53.502 C 326.030 54.855,317.219 57.921,310.068 62.712 C 298.827 70.243,299.889 84.311,312.937 100.703 C 318.464 107.645,327.038 115.600,335.948 122.052 C 339.583 124.683,339.583 124.511,335.948 121.597 C 325.242 113.011,321.006 103.155,323.988 93.763 C 328.182 80.555,345.496 77.205,367.337 85.374 C 379.061 89.759,385.150 89.909,389.696 85.925 C 390.146 85.530,390.383 85.274,390.222 85.357 C 389.990 85.477,389.930 83.369,389.930 75.193 L 389.930 64.878 388.583 63.815 C 383.246 59.603,370.576 55.395,358.548 53.839 C 353.591 53.197,340.461 52.997,336.534 53.502 " stroke="none" fill="#faa30f" fill-rule="evenodd"></path><path id="path1" d="M358.024 157.168 C 357.988 168.646,358.051 177.012,358.175 177.242 C 358.353 177.571,358.296 177.562,357.824 177.189 C 357.514 176.944,357.788 177.260,358.434 177.892 C 364.855 184.171,367.751 192.555,366.394 200.937 C 365.863 204.218,365.897 204.041,365.691 204.526 C 365.533 204.900,374.751 240.530,375.190 241.241 C 375.647 241.980,382.299 236.965,385.805 233.238 C 397.907 220.374,402.478 202.246,398.453 183.082 C 395.789 170.394,388.149 159.524,374.473 148.959 C 371.693 146.812,370.433 145.918,362.998 140.816 C 361.259 139.623,359.709 138.541,359.553 138.410 C 359.398 138.280,359.102 138.173,358.895 138.173 C 358.689 138.173,358.579 138.079,358.650 137.964 C 358.721 137.848,358.623 137.694,358.432 137.621 C 358.127 137.504,358.077 139.887,358.024 157.168 M0.000 169.020 C 0.000 196.901,0.063 198.836,1.171 205.216 C 5.751 231.570,23.057 247.319,50.910 250.477 C 62.108 251.747,72.511 250.924,82.729 247.961 C 85.848 247.057,85.805 246.986,82.422 247.458 C 70.553 249.113,58.136 246.346,51.080 240.473 L 49.584 239.227 44.707 223.888 C 42.024 215.451,39.875 208.416,39.931 208.255 C 39.987 208.094,39.930 207.963,39.805 207.963 C 39.681 207.963,39.578 207.808,39.578 207.618 C 39.578 207.289,38.689 205.395,38.420 205.152 C 38.349 205.088,38.271 204.930,38.247 204.801 C 38.223 204.672,37.816 203.513,37.341 202.225 C 36.867 200.937,36.438 199.567,36.389 199.180 C 36.340 198.794,36.239 198.320,36.164 198.126 C 36.043 197.816,35.447 194.938,35.279 193.857 C 35.245 193.634,35.153 193.389,35.076 193.312 C 35.000 193.235,34.924 183.300,34.908 171.235 C 34.892 159.169,34.819 148.924,34.747 148.467 L 34.616 147.637 17.952 145.343 C 8.787 144.081,0.998 142.993,0.644 142.924 L -0.000 142.799 0.000 169.020 M125.791 156.792 C 125.270 164.982,129.330 189.062,132.407 196.030 C 132.627 196.529,103.831 204.762,103.289 204.355 C 103.074 204.193,103.127 204.402,103.430 204.918 C 105.338 208.164,105.908 209.082,107.505 211.475 C 109.096 213.859,110.927 216.224,115.311 221.555 C 128.578 237.687,154.359 249.262,181.038 251.064 C 208.614 252.926,230.935 246.520,249.140 231.519 L 251.559 229.526 250.311 228.735 C 249.625 228.300,243.741 224.698,237.237 220.730 C 230.732 216.762,225.278 213.352,225.117 213.153 C 224.937 212.930,224.824 212.898,224.824 213.070 C 224.824 213.223,224.745 213.329,224.649 213.305 C 224.552 213.281,222.945 214.014,221.077 214.934 C 203.629 223.530,179.292 223.559,161.020 215.005 C 141.677 205.950,128.669 186.046,126.451 162.109 C 126.122 158.564,125.829 156.199,125.791 156.792 M349.883 170.775 C 349.947 170.852,350.679 171.415,351.508 172.024 C 352.337 172.633,353.128 173.224,353.264 173.336 C 353.401 173.449,354.251 174.068,355.152 174.713 C 356.054 175.358,356.792 176.016,356.792 176.175 C 356.792 176.334,357.029 176.476,357.319 176.490 C 358.063 176.528,358.176 176.630,354.508 173.944 C 351.414 171.678,349.602 170.436,349.883 170.775 " stroke="none" fill="#e93784" fill-rule="evenodd"></path><path id="path2" d="M298.838 72.845 C 289.821 83.680,282.101 98.902,275.919 118.033 C 274.943 121.053,274.542 122.364,269.326 139.578 C 262.742 161.311,261.022 165.989,255.185 178.035 C 254.330 179.801,253.630 181.344,253.630 181.464 C 253.630 181.584,253.472 181.744,253.279 181.818 C 252.128 182.259,252.936 182.841,264.646 190.013 C 277.206 197.704,276.581 197.345,276.581 196.867 C 276.581 196.690,276.739 196.413,276.932 196.253 C 277.125 196.093,277.283 195.772,277.283 195.541 C 277.283 195.310,277.380 195.086,277.498 195.043 C 277.700 194.970,280.349 189.806,281.503 187.237 C 281.793 186.593,282.344 185.381,282.728 184.543 C 285.962 177.496,290.132 166.057,293.357 155.386 C 294.330 152.166,296.328 145.612,297.797 140.821 C 300.964 130.492,300.835 132.216,298.688 129.008 C 287.653 112.516,287.561 89.489,298.468 73.910 C 300.440 71.093,300.543 70.797,298.838 72.845 M98.595 195.802 C 98.595 196.261,95.784 201.305,94.298 203.513 C 90.101 209.748,85.578 213.963,80.048 216.794 C 79.107 217.275,78.202 217.799,78.038 217.958 C 77.873 218.117,77.583 218.188,77.394 218.115 C 76.860 217.910,76.791 217.669,81.526 232.603 C 86.199 247.340,86.110 247.080,86.371 246.715 C 86.461 246.589,86.713 246.457,86.931 246.421 C 87.150 246.385,87.624 246.201,87.985 246.013 C 88.346 245.824,88.726 245.670,88.829 245.669 C 88.932 245.668,90.294 245.032,91.856 244.255 C 100.763 239.825,109.026 232.366,114.622 223.704 L 115.724 221.997 114.341 220.425 C 108.736 214.054,103.481 205.931,100.218 198.595 C 99.005 195.868,98.595 195.162,98.595 195.802 M293.560 214.552 C 284.096 216.765,280.437 229.529,287.159 236.884 C 292.643 242.884,307.773 248.251,326.230 250.744 C 329.831 251.230,344.500 251.382,344.937 250.937 C 345.088 250.783,343.908 245.946,341.495 236.824 L 337.822 222.946 337.119 222.983 C 336.477 223.018,335.583 222.953,331.499 222.577 C 326.317 222.101,321.105 220.888,312.860 218.241 C 304.648 215.605,302.799 215.053,300.808 214.642 C 298.924 214.253,295.045 214.205,293.560 214.552 " stroke="none" fill="#a315bb" fill-rule="evenodd"></path><path id="path3" d="M181.557 53.332 C 182.040 53.383,182.831 53.383,183.314 53.332 C 183.797 53.282,183.402 53.240,182.436 53.240 C 181.470 53.240,181.074 53.282,181.557 53.332 M192.681 53.333 C 193.229 53.382,194.125 53.382,194.672 53.333 C 195.220 53.284,194.772 53.243,193.677 53.243 C 192.582 53.243,192.134 53.284,192.681 53.333 M177.814 53.564 C 178.170 53.618,178.696 53.616,178.984 53.561 C 179.273 53.505,178.981 53.461,178.337 53.463 C 177.693 53.465,177.458 53.510,177.814 53.564 M197.014 53.564 C 197.368 53.617,197.948 53.617,198.302 53.564 C 198.656 53.510,198.367 53.466,197.658 53.466 C 196.950 53.466,196.660 53.510,197.014 53.564 M199.941 53.795 C 200.231 53.851,200.706 53.851,200.995 53.795 C 201.285 53.739,201.048 53.694,200.468 53.694 C 199.889 53.694,199.652 53.739,199.941 53.795 M202.049 54.029 C 202.339 54.085,202.813 54.085,203.103 54.029 C 203.393 53.974,203.156 53.928,202.576 53.928 C 201.996 53.928,201.759 53.974,202.049 54.029 M204.394 54.264 C 204.685 54.320,205.107 54.318,205.331 54.259 C 205.555 54.201,205.316 54.155,204.801 54.157 C 204.286 54.160,204.103 54.208,204.394 54.264 M206.674 54.580 C 207.190 54.687,207.875 54.768,208.197 54.761 C 208.572 54.752,208.446 54.678,207.845 54.553 C 207.330 54.447,206.645 54.366,206.323 54.373 C 205.948 54.382,206.074 54.456,206.674 54.580 M209.485 55.035 C 209.871 55.133,210.451 55.214,210.773 55.214 C 211.295 55.214,211.282 55.195,210.656 55.035 C 210.269 54.937,209.690 54.856,209.368 54.856 C 208.845 54.856,208.858 54.876,209.485 55.035 M29.977 55.532 C 16.689 56.872,6.812 64.192,2.216 76.107 C 1.498 77.968,1.397 78.108,0.723 78.176 L 0.000 78.250 0.000 110.524 L 0.000 142.799 0.644 142.924 C 0.998 142.993,8.792 144.082,17.963 145.345 L 34.639 147.640 34.732 148.235 C 34.783 148.562,34.840 134.154,34.860 116.218 L 34.895 83.607 57.624 83.607 C 77.594 83.607,80.557 83.561,82.038 83.232 C 98.041 79.677,97.416 58.698,81.216 55.625 C 79.094 55.223,33.861 55.141,29.977 55.532 M213.466 55.761 C 213.981 55.877,215.588 56.243,217.037 56.575 L 219.672 57.179 219.672 72.879 C 219.672 87.728,219.650 88.572,219.262 88.440 C 219.037 88.364,216.692 87.568,214.052 86.671 C 207.529 84.456,198.046 82.587,193.948 82.709 C 192.929 82.739,192.839 82.766,193.560 82.826 C 203.770 83.673,212.987 85.989,221.703 89.899 C 235.506 96.090,246.268 93.258,248.962 82.724 C 251.888 71.285,243.566 63.691,221.194 57.384 C 218.280 56.562,213.509 55.492,212.920 55.527 C 212.705 55.540,212.951 55.645,213.466 55.761 M305.504 66.096 C 288.367 80.310,285.348 108.964,298.858 129.168 C 299.744 130.493,300.468 131.652,300.468 131.746 C 300.468 132.116,303.318 135.412,306.204 138.379 C 311.511 143.836,315.757 147.218,327.752 155.540 C 331.745 158.311,338.173 162.777,342.037 165.464 C 345.902 168.152,349.438 170.533,349.896 170.756 C 350.354 170.979,352.383 172.378,354.404 173.865 L 358.080 176.569 358.080 156.926 L 358.080 137.283 357.319 136.816 C 356.900 136.559,355.820 135.829,354.918 135.194 C 343.111 126.872,339.489 124.359,338.433 123.758 C 334.016 121.244,322.602 111.495,317.061 105.504 C 302.661 89.934,298.462 74.880,306.099 66.204 C 307.410 64.714,307.213 64.679,305.504 66.096 M389.930 75.280 C 389.930 86.902,389.819 86.410,391.823 83.697 C 395.602 78.582,395.193 70.079,390.974 66.059 L 389.930 65.063 389.930 75.280 M122.351 76.405 L 121.663 77.166 122.424 76.478 C 122.843 76.100,123.185 75.758,123.185 75.717 C 123.185 75.536,122.992 75.696,122.351 76.405 M118.380 80.152 L 116.042 82.553 118.443 80.215 C 119.763 78.930,120.843 77.849,120.843 77.815 C 120.843 77.645,120.551 77.923,118.380 80.152 M180.159 82.691 C 137.945 85.243,100.175 110.422,92.395 141.199 C 89.126 154.131,91.386 176.059,97.706 192.739 C 98.218 194.091,98.717 195.251,98.815 195.315 C 98.913 195.380,99.435 196.434,99.975 197.658 C 101.388 200.862,103.360 204.572,103.632 204.536 C 105.665 204.271,132.538 196.327,132.407 196.030 C 127.402 184.695,124.490 156.923,126.586 140.515 C 131.039 105.651,153.813 83.809,186.885 82.685 L 191.920 82.513 187.588 82.509 C 185.205 82.506,181.862 82.589,180.159 82.691 M114.856 83.899 L 114.169 84.660 114.930 83.973 C 115.639 83.331,115.799 83.138,115.618 83.138 C 115.577 83.138,115.235 83.481,114.856 83.899 " stroke="none" fill="#f80e20" fill-rule="evenodd"></path><path id="path4" d="M354.801 174.657 C 355.381 175.177,356.171 175.777,356.557 175.991 L 357.260 176.379 356.557 175.778 C 356.171 175.447,355.381 174.847,354.801 174.444 L 353.747 173.712 354.801 174.657 M357.300 176.518 C 357.240 176.617,357.454 176.895,357.776 177.136 C 358.356 177.571,358.359 177.571,358.102 177.091 C 357.794 176.515,357.451 176.270,357.300 176.518 M252.488 183.071 C 252.347 183.430,252.127 183.882,252.000 184.075 C 251.873 184.268,251.049 185.589,250.170 187.010 C 243.960 197.046,236.053 205.627,228.247 210.801 C 226.715 211.816,225.364 212.646,225.243 212.646 C 224.278 212.646,226.870 214.378,238.384 221.425 C 251.652 229.545,251.896 229.690,251.650 229.291 C 251.576 229.171,251.727 229.006,251.985 228.924 C 252.594 228.731,257.896 223.504,260.537 220.492 C 266.951 213.180,277.036 197.956,276.059 197.061 C 275.895 196.911,270.703 193.703,264.520 189.934 C 258.337 186.164,253.159 182.930,253.012 182.748 C 252.792 182.476,252.700 182.532,252.488 183.071 M34.895 192.453 C 34.895 192.853,34.998 193.245,35.125 193.323 C 35.269 193.412,35.301 193.176,35.209 192.693 C 35.011 191.658,34.895 191.568,34.895 192.453 M365.247 205.543 C 365.158 205.823,365.042 206.279,364.988 206.557 C 364.837 207.341,363.285 210.014,361.927 211.829 C 357.275 218.047,349.988 221.774,340.639 222.718 C 339.225 222.861,338.025 223.021,337.971 223.075 C 337.918 223.129,339.489 229.261,341.463 236.703 C 343.437 244.145,345.055 250.425,345.059 250.657 C 345.074 251.660,355.796 249.756,362.452 247.570 C 366.433 246.262,374.239 242.634,374.239 242.092 C 374.239 241.982,374.344 241.958,374.473 242.037 C 374.602 242.117,374.707 242.071,374.707 241.934 C 374.707 241.798,374.863 241.686,375.054 241.686 C 375.325 241.686,375.350 241.572,375.169 241.159 C 375.042 240.869,372.882 232.834,370.369 223.302 C 365.400 204.458,365.492 204.774,365.247 205.543 M39.873 208.607 C 39.936 208.832,42.120 215.761,44.726 224.005 L 49.466 238.993 50.552 240.000 C 56.407 245.423,67.644 248.588,78.279 247.810 C 82.734 247.484,85.948 247.041,85.948 246.753 C 85.948 246.624,84.010 240.398,81.640 232.919 C 79.270 225.440,77.259 219.078,77.171 218.782 C 77.051 218.381,76.934 218.305,76.715 218.487 C 76.553 218.621,76.358 218.669,76.281 218.592 C 76.205 218.516,75.477 218.670,74.664 218.936 C 62.424 222.931,46.572 218.417,40.861 209.310 C 40.163 208.196,39.657 207.837,39.873 208.607 " stroke="none" fill="#cf2c9c" fill-rule="evenodd"></path></g></svg>